
<svg width="16px" height="16px" viewBox="0 0 16 16" version="1.1" xmlns="http://www.w3.org/2000/svg" xmlns:xlink="http://www.w3.org/1999/xlink">
    <desc>Created with Sketch Beta.</desc>
    <defs></defs>
    <g id="Page-1" stroke="none" stroke-width="1" fill="none" fill-rule="evenodd">
        <g id="/desktop/01---Discussions-List" transform="translate(-215.000000, -70.000000)" fill="#A6ACB3">
            <path d="M221.153846,79.8465578 C219.118154,79.8465578 217.461538,78.1898745 217.461538,76.1540986 C217.461538,74.1183228 219.118154,72.4616395 221.153846,72.4616395 C223.189538,72.4616395 224.846154,74.1183228 224.846154,76.1540986 C224.846154,78.1898745 223.189538,79.8465578 221.153846,79.8465578 M229.64,82.8989907 L226.283692,79.5437762 C226.928615,78.5714286 227.307692,77.4083039 227.307692,76.1540986 C227.307692,72.7558054 224.552,70 221.153846,70 C217.755692,70 215,72.7558054 215,76.1540986 C215,79.5523919 217.755692,82.3081973 221.153846,82.3081973 C222.408,82.3081973 223.571077,81.9291048 224.543385,81.2841552 L227.898462,84.6406006 C228.139692,84.8806105 228.454769,85 228.768615,85 C229.083692,85 229.398769,84.8806105 229.64,84.6406006 C230.12,84.1593501 230.12,83.3802412 229.64,82.8989907" id="Page-1"></path>
        </g>
    </g>
</svg>